<?xml version="1.0" encoding="UTF-8" standalone="no"?>
<svg
   xmlns:dc="http://purl.org/dc/elements/1.1/"
   xmlns:cc="http://creativecommons.org/ns#"
   xmlns:rdf="http://www.w3.org/1999/02/22-rdf-syntax-ns#"
   xmlns:svg="http://www.w3.org/2000/svg"
   xmlns="http://www.w3.org/2000/svg"
   version="1.1"
   id="svg833"
   xml:space="preserve"
   width="600"
   height="138.52231"
   viewBox="0 0 600 138.52231"><metadata
     id="metadata839"><rdf:RDF><cc:Work
         rdf:about=""><dc:format>image/svg+xml</dc:format><dc:type
           rdf:resource="http://purl.org/dc/dcmitype/StillImage" /><dc:title></dc:title></cc:Work></rdf:RDF></metadata><defs
     id="defs837" /><g
     id="g841"
     transform="matrix(1.3333333,0,0,-1.3333333,-609.75185,71.795465)"><g
       id="g1217"><g
         id="g1194"><path
           d="m 722.09748,3.7357298 c 9.38826,-10.2031483 28.63163,-21.5819508 64.00736,-21.5819508 21.39945,0 39.28467,4.783256 39.28467,4.783256 0,0 -12.64359,-3.111026 -39.10217,-3.111026 -36.25853,0 -53.41374,9.5368029 -63.2349,20.8858956 -3.45906,3.9980723 -3.9811,6.9308404 -6.90962,11.5273504 -6.73985,10.580886 -6.94782,20.915605 -17.96586,20.915605 -15.86496,0 -18.08895,-20.232282 -18.08895,-20.232282 0,0 4.02354,19.150002 17.9022,19.150002 7.43166,0 11.61648,-10.610595 17.15946,-20.427518 2.19427,-3.887722 2.6102,-7.1939837 6.94781,-11.9093322"
           style="fill:#127bca;fill-opacity:1;fill-rule:nonzero;stroke:none;stroke-width:4.24424"
           id="path897" /><path
           d="m 671.82236,42.691469 c -8.56912,0 -13.37784,-9.761748 -13.37784,-9.761748 0,0 6.06926,9.035983 13.15714,9.035983 11.5316,0 14.34128,-30.889564 14.34128,-34.9046136 l 0.98891,1.8759532 c 0,0 -2.1391,33.7544254 -15.10949,33.7544254"
           style="fill:#127bca;fill-opacity:1;fill-rule:nonzero;stroke:none;stroke-width:4.24424"
           id="path901" /><path
           d="M 687.47299,20.8468 C 687.23531,20.17621 684.6633,6.0174322 684.6633,6.0174322 l -0.43291,1.4048428 c 1.08228,9.447674 3.48028,14.095115 3.2426,13.424525 m -5.73821,-6.485196 0.82763,-3.777372 -0.36501,-1.4769945 -0.83611,2.9073035 z m 1.06106,2.521078 0.57297,-4.184819 -0.11459,-1.073792 -0.83187,2.907303 z m -2.04572,-5.899491 0.94222,-3.8410357 -0.62815,-3.3826577 -0.97618,2.8478837 z m 3.19166,-6.3196707 0.21646,-1.710428 -0.2971,-1.7443818 -0.3268,1.5533911 z m -4.17633,-4.51586935 0.57722,2.02874575 0.94646,-5.2289013 -0.80216,-0.6578569 z m 2.04997,-4.01929345 1.61705,-1.7613588 -1.24356,-0.2291889 -1.57885,1.4812391 -0.0976,0.284364 z m 88.98045,-18.6322055 c -12.4441,1.774092 -25.27868,6.463975 -36.00811,11.985729 -13.09772,6.744094 -14.12907,9.2779041 -21.06416,20.80101 0,0 3.87924,-11.07321667 11.98573,-17.622076 0,0 -5.05064,0.00849 -13.81499,19.391924 -0.87432,1.926884 -3.19167,6.654965 -5.04216,9.638664 -1.85049,2.9837 -6.04379,10.351697 -9.78297,10.351697 -8.92563,0 -13.46697,-14.914252 -13.46697,-19.07785 -0.14006,1.583101 -0.30558,3.399635 -0.52628,5.330763 0.46262,1.901419 4.68988,15.088266 14.03994,15.088266 7.97068,0 13.4415,-14.960939 21.86207,-30.2019978 7.19823,-13.0255667 25.66491,-18.4497032 41.31766,-22.1039922 16.07293,-3.671266 33.08808,-3.743418 49.6788,-1.00164 -5.1907,-1.235073 -10.5342,-2.25369 -16.05171,-2.75451 -7.83486,-0.704544 -15.58059,-0.653613 -23.12685,0.174013 M 678.89114,6.8323259 c -2.99219,17.7239381 -6.09897,27.9907501 -7.89428,27.9907501 -2.27067,0 -5.50054,-5.517509 -5.50054,-5.517509 0,0 2.18154,6.370601 5.46234,6.370601 4.71959,0 8.09376,-26.0129353 8.44603,-28.075635 -0.0212,-0.097618 -0.51355,-0.7682071 -0.51355,-0.7682071 m -33.49553,-9.502849 c 2.20276,4.5370905 4.31215,9.8338996 6.49369,15.3386761 2.207,5.534487 10.36018,27.761562 19.24337,27.761562 7.45713,0 10.2371,-13.101963 10.95438,-20.206818 -0.16552,-0.585705 -0.53053,-2.016013 -0.56448,-2.168806 -0.59844,4.660174 -2.09241,21.492822 -10.59787,21.492822 -7.46137,0 -16.47188,-22.354402 -16.47188,-22.354402 0,0 9.62168,21.089619 16.40398,21.089619 6.54886,0 7.62265,-9.265172 10.24559,-22.074282 -0.27163,-1.235073 -0.54751,-2.597474 -0.8149,-3.934409 -1.49397,10.419605 -4.00656,25.274438 -9.43494,25.274438 -7.50381,0 -16.66712,-26.06811 -18.50912,-31.9378916 -0.88705,-2.9327686 -4.64744,-12.4738158 -5.69152,-14.2818612 -0.69181,-1.3708892 -2.61445,-3.9683622 -3.20016,-3.8707452 0.53902,0.04669 2.44468,2.8606165 3.27231,4.9318047 1.19687,2.5677641 2.22398,5.4198921 3.15771,8.19986801 1.85049,5.57268459 3.2426,11.62072429 4.15511,14.85483329 -2.33857,-5.398671 -10.21588,-25.830433 -10.60635,-26.271834 -0.0509,-0.169769 -0.68332,1.1035022 -1.21385,2.5677643 0.70454,0.9761748 2.92852,5.080353 3.17893,5.5896616 M 831.52667,-16.612845 c -12.17672,-4.337612 -23.62767,-5.84856 -23.62767,-5.84856 15.76735,3.102538 30.87259,8.60307 44.92526,15.9413579 -0.87007,-0.2376773 -1.69345,-0.2291888 -2.74178,-0.8997785 0.14855,0.3989584 0.28861,0.7936726 0.28861,0.7936726 0,0 -1.47275,-0.64088 -2.94974,-1.2732715 1.79531,1.3666447 9.04871,4.7365697 6.27722,3.8028374 -6.54886,-2.6781143 -52.56913,-26.4585799 -107.1373,-8.5691169 -16.93875,7.3128224 -19.09907,8.3526607 -25.20653,15.5424 -5.16099,6.077749 -14.38372,31.751145 -23.42819,31.954869 -10.76339,0.246165 -14.79966,-12.049392 -15.08402,-12.923705 -1.38787,9.226973 -4.32488,19.374946 -11.65468,19.374946 -9.43494,0 -18.45395,-22.528415 -20.98352,-28.194473 -2.0924,-4.7238371 -8.10225,-18.21627 -8.6158,-19.2179102 -1.00588,5.93344486 -1.53217,9.4179643 -1.53217,11.0901941 0,24.1157611 -4.00656,28.4236621 -9.14633,28.4236621 -8.36964,0 -14.76995,-13.925345 -17.0194,-20.457227 5.18646,10.181927 10.41112,18.734067 16.68835,18.734067 8.33144,0 7.09212,-19.154247 7.69905,-26.8660274 0.63239,-7.9961445 2.40648,-14.6426213 3.7901,-16.5864826 0.31832,-0.432912 0.9592,-0.802161 0.9592,-0.802161 0,0 -0.41169,0.08488 -1.07379,0.662101 -1.22234,1.128968 -2.63143,4.7493028 -3.56516,10.5978629 -1.09926,5.8273388 -1.32421,32.0694631 -7.87307,32.0694631 -6.48519,0 -12.75818,-12.295558 -15.92013,-19.455588 0.74698,1.145945 8.91714,18.220515 15.85647,18.220515 3.06858,0 2.25369,-5.704256 2.25369,-5.704256 0,0 -0.56873,4.626219 -2.25369,4.626219 -7.91126,0 -19.48954,-29.968565 -19.48954,-29.968565 0,0 12.93644,27.332893 18.59825,27.332893 1.92688,0 0.50082,-43.507684 13.72587,-43.507684 10.50873,0 26.33549,44.292868 26.33549,44.292868 0,0 3.36993,-41.241261 11.26421,-41.241261 10.3899,0 10.26257,36.712659 16.36578,36.712659 4.91908,0 13.54761,-24.5529171 23.64041,-31.9081817 11.46369,-7.8136423 35.98265,-17.7027173 57.47547,-17.7027173 20.42752,0 38.29576,1.515193 56.43139,8.526675 30.74102,11.8838662 41.1776,23.0504566 41.1776,23.0504566 0,0 -29.82851,-15.4108286 -44.44991,-20.6227526"
           style="fill:#127bca;fill-opacity:1;fill-rule:nonzero;stroke:none;stroke-width:4.24424"
           id="path905" /></g><g
         id="g1203"><path
           d="m 513.23895,15.651004 c -0.47535,8.670978 -1.05257,19.1882 -1.05257,26.844806 h -0.19099 c -2.28764,-7.193984 -4.8639,-15.037336 -8.11074,-23.614941 l -11.35334,-30.168044 h -6.29844 l -10.49601,29.612049 c -3.05585,8.857725 -5.53448,16.790206 -7.35102,24.170936 h -0.18674 c -0.19099,-7.745735 -0.67059,-18.080455 -1.24356,-27.48993 l -1.71468,-26.662304 h -7.92399 l 4.48616,62.178088 h 10.59362 L 483.368,20.446993 c 2.67387,-7.656606 4.77477,-14.4813405 6.48944,-20.94107085 h 0.191 c 1.71891,6.27298385 4.0108,13.10196285 6.87142,20.94107085 l 11.45095,30.074671 h 10.59362 l 4.00656,-62.178088 h -8.20836 z"
           style="fill:#231f20;fill-opacity:1;fill-rule:nonzero;stroke:none;stroke-width:4.24424"
           id="path909" /><path
           d="m 565.13283,11.13089 c -9.15907,0.186747 -19.5617,-1.3836214 -19.5617,-10.0545998 0,-5.3519842 3.62458,-7.7499787 7.82638,-7.7499787 6.10746,0 10.02064,3.6882429 11.35334,7.47410326 0.2886,0.82762644 0.38198,1.74862614 0.38198,2.58049674 z m 8.20835,-12.0875898 c 0,-3.8707451 0.19099,-7.6566055 0.66635,-10.6997242 h -7.53777 l -0.76396,5.6278597 h -0.28437 c -2.48287,-3.5057407 -7.53776,-6.6422327 -14.12482,-6.6422327 -9.35006,0 -14.12058,6.3663572 -14.12058,12.82608757 0,10.79309743 9.92303,16.69683243 27.76581,16.60345943 v 0.921 c 0,3.692487 -1.04833,10.428093 -10.496,10.334719 -4.38855,0 -8.87471,-1.201119 -12.1173,-3.323238 l -1.90991,5.445357 c 3.81557,2.304622 9.44767,3.87499 15.26652,3.87499 14.2182,0 17.65603,-9.320347 17.65603,-18.267201 z"
           style="fill:#231f20;fill-opacity:1;fill-rule:nonzero;stroke:none;stroke-width:4.24424"
           id="path913" /><path
           d="m 591.66059,19.063796 c 0,5.258611 -0.0934,9.778724 -0.38198,13.933833 h 7.34677 l 0.38198,-8.764351 h 0.28437 c 2.1009,5.992864 7.2534,9.778724 12.8855,9.778724 0.85734,0 1.52793,-0.09337 2.29189,-0.28012 V 26.16865 c -0.95495,0.09337 -1.81229,0.182502 -2.96247,0.182502 -5.91647,0 -10.11402,-4.333367 -11.25572,-10.330475 -0.191,-1.201119 -0.28861,-2.491368 -0.28861,-3.874989 V -11.656 h -8.39511 z"
           style="fill:#231f20;fill-opacity:1;fill-rule:nonzero;stroke:none;stroke-width:4.24424"
           id="path917" /><path
           d="m 726.8748,11.13089 c -9.16331,0.186747 -19.5617,-1.3836214 -19.5617,-10.0545998 0,-5.3519842 3.62458,-7.7499787 7.82214,-7.7499787 6.10745,0 10.02064,3.6882429 11.35758,7.47410326 0.28436,0.82762644 0.38198,1.74862614 0.38198,2.58049674 z m 8.20411,-12.0875898 c 0,-3.8707451 0.19099,-7.6566055 0.66635,-10.6997242 h -7.53353 l -0.76396,5.6278597 h -0.28861 c -2.48288,-3.5057407 -7.53777,-6.6422327 -14.12058,-6.6422327 -9.3543,0 -14.12482,6.3663572 -14.12482,12.82608757 0,10.79309743 9.92303,16.69683243 27.77005,16.60345943 v 0.921 c 0,3.692487 -1.04833,10.428093 -10.50025,10.334719 -4.38854,0 -8.87046,-1.201119 -12.1173,-3.323238 l -1.90566,5.445357 c 3.81557,2.304622 9.44767,3.87499 15.26652,3.87499 14.2182,0 17.65179,-9.320347 17.65179,-18.267201 z"
           style="fill:#231f20;fill-opacity:1;fill-rule:nonzero;stroke:none;stroke-width:4.24424"
           id="path921" /><path
           d="m 753.30537,20.910039 c 0,4.702616 -0.0934,8.395103 -0.38199,12.08759 h 7.4444 l 0.4796,-7.291601 h 0.18674 c 2.29189,4.150865 7.63539,8.305974 15.27077,8.305974 6.39182,0 16.31485,-3.692487 16.31485,-19.005698 V -11.656 h -8.3951 v 25.73706 c 0,7.198228 -2.76724,13.284465 -10.69124,13.284465 -5.43686,0 -9.73203,-3.781616 -11.25996,-8.301729 -0.37774,-1.014373 -0.56873,-2.491368 -0.56873,-3.781616 V -11.656 h -8.39934 z"
           style="fill:#231f20;fill-opacity:1;fill-rule:nonzero;stroke:none;stroke-width:4.24424"
           id="path925" /><path
           d="m 842.52647,14.820831 c 0,1.107746 -0.0934,2.397994 -0.38199,3.50574 -1.23931,5.076109 -5.81885,9.316103 -12.12154,9.316103 -8.67947,0 -13.83197,-7.376486 -13.83197,-17.15521 0,-9.1336006 4.6729,-16.6077039 13.64522,-16.6077039 5.62786,0 10.78037,3.6882429 12.30829,9.6853513 0.28861,1.1077462 0.38199,2.2154923 0.38199,3.5057407 z M 850.92581,53.8466 V -0.12313144 c 0,-3.96836266 0.0934,-8.48847616 0.38198,-11.53159456 h -7.54201 l -0.38198,7.7457342 h -0.19099 c -2.57625,-4.9784913 -8.10649,-8.7601072 -15.6485,-8.7601072 -11.16235,0 -19.84606,9.1336001 -19.84606,22.693941 -0.0976,14.943962 9.54105,23.984189 20.70764,23.984189 7.15578,0 11.9263,-3.225621 13.92959,-6.735606 h 0.19099 V 53.8466 Z"
           style="fill:#231f20;fill-opacity:1;fill-rule:nonzero;stroke:none;stroke-width:4.24424"
           id="path929" /><path
           d="m 898.92178,15.097555 c 0.0934,5.076109 -2.19427,13.195336 -11.54433,13.195336 -8.59034,0 -12.21492,-7.567476 -12.88551,-13.195336 z M 874.39433,9.2871932 c 0.19523,-10.9798439 7.35102,-15.4999574 15.74612,-15.4999574 6.01409,0 9.73628,1.0143729 12.78789,2.2154922 l 1.52793,-5.7212329 c -2.95824,-1.2902481 -8.11074,-2.8606161 -15.45752,-2.8606161 -14.12482,0 -22.71092,9.1336 -22.71092,22.5114384 0,13.5603406 8.30173,24.1709356 21.75597,24.1709356 15.07553,0 18.98872,-12.826087 18.98872,-21.034444 0,-1.663741 -0.0976,-2.953989 -0.28437,-3.874989 z"
           style="fill:#231f20;fill-opacity:1;fill-rule:nonzero;stroke:none;stroke-width:4.24424"
           id="path933" /></g></g><g
       id="g1188"><path
         d="m 461.13371,-41.153879 h -3.81981 v 1.078037 h 9.29913 v -1.078037 h -3.84104 v -8.730397 h -1.63828 z"
         style="fill:#231f20;fill-opacity:1;fill-rule:nonzero;stroke:none;stroke-width:4.24424"
         id="path939" /><path
         d="m 494.06094,-45.287342 h -4.8639 v -3.53545 h 5.44111 v -1.06106 h -7.07939 v 9.808434 h 6.79927 v -1.065304 h -5.16099 v -3.098293 h 4.8639 z"
         style="fill:#231f20;fill-opacity:1;fill-rule:nonzero;stroke:none;stroke-width:4.24424"
         id="path943" /><path
         d="m 517.93265,-44.676172 h 1.65526 c 1.73589,0 2.83515,0.742742 2.83515,1.863221 0,1.264783 -1.17566,1.820778 -2.89033,1.820778 -0.78094,0 -1.31996,-0.05942 -1.60008,-0.118839 z m -1.62129,4.452206 c 0.81913,0.131571 2.01176,0.2207 3.11102,0.2207 1.73165,0 2.86911,-0.263142 3.65429,-0.814893 0.61542,-0.424424 0.98466,-1.09077 0.98466,-1.863221 0,-1.28176 -1.06105,-2.139096 -2.36404,-2.491368 v -0.04244 c 0.95071,-0.258899 1.52793,-0.959198 1.842,-1.977815 0.41169,-1.366645 0.70879,-2.317354 0.95071,-2.690847 h -1.67647 c -0.20372,0.275875 -0.48384,1.116235 -0.81914,2.338575 -0.37349,1.353912 -1.06106,1.863221 -2.53381,1.909907 h -1.52793 v -4.248482 h -1.62129 z"
         style="fill:#231f20;fill-opacity:1;fill-rule:nonzero;stroke:none;stroke-width:4.24424"
         id="path947" /><path
         d="m 547.52306,-44.676172 h 1.6595 c 1.73164,0 2.8309,0.742742 2.8309,1.863221 0,1.264783 -1.17565,1.820778 -2.89032,1.820778 -0.78094,0 -1.31996,-0.05942 -1.60008,-0.118839 z m -1.6213,4.452206 c 0.81914,0.131571 2.01177,0.2207 3.11103,0.2207 1.73589,0 2.8691,-0.263142 3.65428,-0.814893 0.61542,-0.424424 0.98891,-1.09077 0.98891,-1.863221 0,-1.28176 -1.0653,-2.139096 -2.36828,-2.491368 v -0.04244 c 0.95071,-0.258899 1.52792,-0.959198 1.84624,-1.977815 0.40745,-1.366645 0.70454,-2.317354 0.95071,-2.690847 h -1.68072 c -0.20372,0.275875 -0.48384,1.116235 -0.81914,2.338575 -0.37349,1.353912 -1.06106,1.863221 -2.53381,1.909907 h -1.52792 v -4.248482 h -1.6213 z"
         style="fill:#231f20;fill-opacity:1;fill-rule:nonzero;stroke:none;stroke-width:4.24424"
         id="path951" /><path
         d="m 581.97863,-45.287342 h -4.86389 v -3.53545 h 5.44111 v -1.06106 h -7.07939 v 9.808434 h 6.79927 v -1.065304 h -5.16099 v -3.098293 h 4.86389 z"
         style="fill:#231f20;fill-opacity:1;fill-rule:nonzero;stroke:none;stroke-width:4.24424"
         id="path955" /><path
         d="m 629.36555,-48.897067 c 0.41169,-0.05517 1.00588,-0.05517 1.63828,-0.05517 3.46754,-0.01698 5.34774,1.510949 5.34774,4.159354 0.0212,2.342819 -1.65526,3.78586 -5.0846,3.78586 -0.84036,0 -1.47275,-0.05942 -1.90142,-0.131571 z m -1.64252,8.687956 c 1.01013,0.118838 2.18154,0.203723 3.46754,0.203723 2.33009,0 3.98959,-0.407447 5.08884,-1.205363 1.13746,-0.802161 1.78683,-1.95235 1.78683,-3.539695 0,-1.600078 -0.64937,-2.907303 -1.80805,-3.811326 -1.19263,-0.916755 -3.128,-1.413331 -5.56844,-1.413331 -1.17565,0 -2.12636,0.02971 -2.96672,0.118839 z"
         style="fill:#231f20;fill-opacity:1;fill-rule:nonzero;stroke:none;stroke-width:4.24424"
         id="path959" /><path
         d="m 666.20469,-45.287342 h -4.8639 v -3.53545 h 5.44111 v -1.06106 h -7.07938 v 9.808434 h 6.80351 v -1.065304 h -5.16524 v -3.098293 h 4.8639 z"
         style="fill:#231f20;fill-opacity:1;fill-rule:nonzero;stroke:none;stroke-width:4.24424"
         id="path963" /><path
         d="m 721.54998,-49.45094 c -0.72577,-0.216456 -2.18154,-0.539018 -3.87499,-0.539018 -1.90142,0 -3.46755,0.381981 -4.69837,1.298737 -1.07804,0.814894 -1.75287,2.122119 -1.75287,3.650045 0,2.928524 2.59322,5.06762 6.80351,5.06762 1.45153,0 2.61021,-0.25041 3.14922,-0.449889 l -0.41169,-1.035594 c -0.67059,0.246165 -1.5067,0.420179 -2.77573,0.420179 -3.05585,0 -5.05064,-1.481239 -5.05064,-3.942897 0,-2.487124 1.90142,-3.959874 4.84692,-3.959874 1.06106,0 1.78682,0.118839 2.16031,0.263143 v 2.92428 h -2.53381 v 1.018617 h 4.13814 z"
         style="fill:#231f20;fill-opacity:1;fill-rule:nonzero;stroke:none;stroke-width:4.24424"
         id="path967" /><path
         d="m 749.72535,-45.810657 -1.25205,2.822419 c -0.2589,0.64088 -0.44564,1.22234 -0.63239,1.791068 h -0.0552 c -0.16552,-0.568728 -0.37349,-1.179898 -0.61541,-1.774091 l -1.23083,-2.839396 z m -4.12115,-0.988907 -1.30298,-3.085561 h -1.67648 l 4.26546,9.808434 h 1.95659 l 4.28668,-9.808434 h -1.73164 l -1.34543,3.085561 z"
         style="fill:#231f20;fill-opacity:1;fill-rule:nonzero;stroke:none;stroke-width:4.24424"
         id="path971" /><path
         d="m 776.16568,-44.676172 h 1.6595 c 1.73165,0 2.83091,0.742742 2.83091,1.863221 0,1.264783 -1.17141,1.820778 -2.89033,1.820778 -0.78094,0 -1.31996,-0.05942 -1.60008,-0.118839 z m -1.6213,4.452206 c 0.81914,0.131571 2.01177,0.2207 3.11103,0.2207 1.73589,0 2.87335,-0.263142 3.65429,-0.814893 0.61541,-0.424424 0.98891,-1.09077 0.98891,-1.863221 0,-1.28176 -1.06106,-2.139096 -2.36829,-2.491368 v -0.04244 c 0.95071,-0.258899 1.52793,-0.959198 1.84624,-1.977815 0.40745,-1.366645 0.70455,-2.317354 0.95071,-2.690847 h -1.67647 c -0.20797,0.275875 -0.48809,1.116235 -0.82338,2.338575 -0.3735,1.353912 -1.06106,1.863221 -2.53381,1.909907 h -1.52793 v -4.248482 h -1.6213 z"
         style="fill:#231f20;fill-opacity:1;fill-rule:nonzero;stroke:none;stroke-width:4.24424"
         id="path975" /><path
         d="m 809.16591,-49.013783 c 2.572,0 4.02353,1.850488 4.02353,4.074468 0,1.95235 -1.30298,3.989584 -4.00231,3.989584 -2.70358,0 -4.04476,-1.965082 -4.04476,-4.091445 0,-2.066944 1.45153,-3.972607 4.00656,-3.972607 z m -0.0722,-1.03135 c -3.33597,0 -5.64908,2.007525 -5.64908,4.978491 0,3.111027 2.46166,5.148261 5.81461,5.148261 3.44632,0 5.66606,-2.049967 5.66606,-4.961514 0,-3.361437 -2.62719,-5.165238 -5.81461,-5.165238 z"
         style="fill:#231f20;fill-opacity:1;fill-rule:nonzero;stroke:none;stroke-width:4.24424"
         id="path979" /><path
         d="m 836.59557,-49.88555 v 9.808435 h 1.78682 l 4.01081,-4.961515 c 0.91251,-1.150188 1.65525,-2.168805 2.23247,-3.187423 l 0.0594,0.01273 c -0.14855,1.31147 -0.18675,2.504101 -0.18675,4.019294 v 4.116911 h 1.52792 v -9.808435 h -1.64252 l -3.98534,4.978492 c -0.87855,1.090769 -1.71467,2.211248 -2.33008,3.272307 l -0.0552,-0.01273 c 0.0934,-1.239317 0.11035,-2.419215 0.11035,-4.049003 v -4.189063 z"
         style="fill:#231f20;fill-opacity:1;fill-rule:nonzero;stroke:none;stroke-width:4.24424"
         id="path983" /><path
         d="m 868.42311,-49.88555 v 9.808435 h 1.79107 l 4.00231,-4.961515 c 0.91676,-1.150188 1.6595,-2.168805 2.24096,-3.187423 l 0.0552,0.01273 c -0.1528,1.31147 -0.18675,2.504101 -0.18675,4.019294 v 4.116911 h 1.52793 v -9.808435 h -1.64252 l -3.98534,4.978492 c -0.87856,1.090769 -1.71468,2.211248 -2.33009,3.272307 l -0.0552,-0.01273 c 0.0934,-1.239317 0.11035,-2.419215 0.11035,-4.049003 v -4.189063 z"
         style="fill:#231f20;fill-opacity:1;fill-rule:nonzero;stroke:none;stroke-width:4.24424"
         id="path987" /><path
         d="m 906.73669,-45.287342 h -4.86389 v -3.53545 h 5.44111 v -1.06106 h -7.07939 v 9.808434 h 6.79927 v -1.065304 h -5.16099 v -3.098293 h 4.86389 z"
         style="fill:#231f20;fill-opacity:1;fill-rule:nonzero;stroke:none;stroke-width:4.24424"
         id="path991" /></g></g></svg>
